<svg width="35" height="8" viewBox="0 0 35 8" fill="none" xmlns="http://www.w3.org/2000/svg">
<rect width="35" height="8" fill="#1E1E1E"/>
<path d="M3.61212 1.70403C3.42012 1.62403 3.20812 1.56003 2.97612 1.51203C2.75212 1.46403 2.45612 1.44003 2.08812 1.44003C1.68012 1.44003 1.35612 1.54403 1.11612 1.75203C0.876119 1.95203 0.756119 2.18003 0.756119 2.43603C0.756119 2.69203 0.868119 2.92403 1.09212 3.13203C1.31612 3.34003 1.75212 3.52003 2.40012 3.67203C2.97612 3.80003 3.42012 3.96403 3.73212 4.16403C4.05212 4.36403 4.27612 4.59203 4.40412 4.84803C4.53212 5.09603 4.59612 5.37203 4.59612 5.67603C4.59612 5.97203 4.52012 6.25603 4.36812 6.52803C4.22412 6.79203 3.98412 7.01203 3.64812 7.18803C3.32012 7.35603 2.88012 7.44003 2.32812 7.44003C1.54412 7.44003 0.820119 7.25603 0.156119 6.88803C0.0521192 6.82403 0.000119209 6.73603 0.000119209 6.62403C0.000119209 6.55203 0.0281192 6.48403 0.0841192 6.42003C0.140119 6.35603 0.212119 6.32403 0.300119 6.32403C0.348119 6.32403 0.396119 6.33603 0.444119 6.36003C1.01212 6.68003 1.64012 6.84003 2.32812 6.84003C2.87212 6.84003 3.28412 6.72803 3.56412 6.50403C3.85212 6.27203 3.99612 5.99603 3.99612 5.67603C3.99612 5.34003 3.86012 5.06003 3.58812 4.83603C3.32412 4.61203 2.88812 4.42403 2.28012 4.27203C1.71212 4.12803 1.27212 3.96403 0.960119 3.78003C0.656119 3.59603 0.444119 3.38803 0.324119 3.15603C0.212119 2.92403 0.156119 2.66803 0.156119 2.38803C0.156119 2.13203 0.228119 1.88803 0.372119 1.65603C0.524119 1.41603 0.744119 1.22003 1.03212 1.06803C1.32012 0.916031 1.67212 0.840031 2.08812 0.840031C2.52812 0.840031 2.88012 0.876031 3.14412 0.948031C3.41612 1.01203 3.70012 1.10403 3.99612 1.22403C4.12412 1.27203 4.18812 1.36403 4.18812 1.50003C4.18812 1.58003 4.15612 1.65203 4.09212 1.71603C4.03612 1.77203 3.96812 1.80003 3.88812 1.80003C3.87212 1.80003 3.84812 1.79603 3.81612 1.78803C3.78412 1.77203 3.71612 1.74403 3.61212 1.70403ZM8.64903 7.33203C7.91303 7.33203 7.38903 7.18003 7.07703 6.87603C6.76503 6.56403 6.60903 6.14803 6.60903 5.62803V3.22803H5.85303C5.77303 3.22803 5.70103 3.20003 5.63703 3.14403C5.58103 3.08003 5.55303 3.00803 5.55303 2.92803C5.55303 2.84003 5.58103 2.76803 5.63703 2.71203C5.70103 2.65603 5.77303 2.62803 5.85303 2.62803H6.60903V1.41603C6.60903 1.32803 6.63703 1.25603 6.69303 1.20003C6.75703 1.14403 6.82903 1.11603 6.90903 1.11603C6.99703 1.11603 7.06903 1.14403 7.12503 1.20003C7.18103 1.25603 7.20903 1.32803 7.20903 1.41603V2.62803H8.80503C8.89303 2.62803 8.96503 2.65603 9.02103 2.71203C9.07703 2.76803 9.10503 2.84003 9.10503 2.92803C9.10503 3.00803 9.07703 3.08003 9.02103 3.14403C8.96503 3.20003 8.89303 3.22803 8.80503 3.22803H7.20903V5.62803C7.20903 6.36403 7.68903 6.73203 8.64903 6.73203C8.73703 6.73203 8.80903 6.76403 8.86503 6.82803C8.92103 6.88403 8.94903 6.95203 8.94903 7.03203C8.94903 7.11203 8.91703 7.18403 8.85303 7.24803C8.79703 7.30403 8.72903 7.33203 8.64903 7.33203ZM13.9006 7.22403C13.7246 7.04003 13.5886 6.80803 13.4926 6.52803C13.2206 6.78403 12.9206 6.98403 12.5926 7.12803C12.2726 7.26403 11.9246 7.33203 11.5486 7.33203C11.1806 7.33203 10.8886 7.26403 10.6726 7.12803C10.4566 6.99203 10.3046 6.82403 10.2166 6.62403C10.1286 6.42403 10.0846 6.23603 10.0846 6.06003C10.0846 5.86803 10.1166 5.68403 10.1806 5.50803C10.2526 5.32403 10.3606 5.16403 10.5046 5.02803C10.7046 4.84403 10.9726 4.68803 11.3086 4.56003C11.6446 4.43203 12.0566 4.36803 12.5446 4.36803C12.8006 4.36803 13.0726 4.38003 13.3606 4.40403C13.3286 4.04403 13.2086 3.76003 13.0006 3.55203C12.7926 3.33603 12.4806 3.22803 12.0646 3.22803C11.9046 3.22803 11.7406 3.24403 11.5726 3.27603C11.4046 3.30003 11.2766 3.32803 11.1886 3.36003C11.0846 3.40003 11.0086 3.42003 10.9606 3.42003C10.8806 3.42003 10.8086 3.39203 10.7446 3.33603C10.6806 3.27203 10.6486 3.20403 10.6486 3.13203C10.6486 2.98003 10.7166 2.88003 10.8526 2.83203C10.9886 2.79203 11.1686 2.74803 11.3926 2.70003C11.6246 2.65203 11.8486 2.62803 12.0646 2.62803C12.7206 2.62803 13.2006 2.80803 13.5046 3.16803C13.8166 3.52803 13.9726 3.99603 13.9726 4.57203V5.66403C13.9726 5.93603 14.0006 6.16403 14.0566 6.34803C14.1206 6.52403 14.2126 6.68003 14.3326 6.81603C14.3886 6.87203 14.4166 6.94003 14.4166 7.02003C14.4166 7.10003 14.3846 7.17203 14.3206 7.23603C14.2646 7.29203 14.1966 7.32003 14.1166 7.32003C14.0366 7.32003 13.9646 7.28803 13.9006 7.22403ZM11.5486 6.73203C11.8926 6.73203 12.2206 6.65603 12.5326 6.50403C12.8446 6.34403 13.1246 6.10403 13.3726 5.78403V5.00403C13.0766 4.98003 12.8006 4.96803 12.5446 4.96803C11.7846 4.96803 11.2486 5.12403 10.9366 5.43603C10.8406 5.53203 10.7726 5.63203 10.7326 5.73603C10.7006 5.84003 10.6846 5.94803 10.6846 6.06003C10.6846 6.22003 10.7526 6.37203 10.8886 6.51603C11.0326 6.66003 11.2526 6.73203 11.5486 6.73203ZM18.847 3.36003C18.559 3.27203 18.279 3.22803 18.007 3.22803C17.399 3.22803 16.923 3.40403 16.579 3.75603C16.243 4.10003 16.075 4.54403 16.075 5.08803C16.075 5.56003 16.243 5.95203 16.579 6.26403C16.915 6.57603 17.387 6.73203 17.995 6.73203C18.219 6.73203 18.415 6.71603 18.583 6.68403C18.751 6.64403 18.883 6.60803 18.979 6.57603C19.067 6.54403 19.123 6.52403 19.147 6.51603C19.179 6.50803 19.203 6.50403 19.219 6.50403C19.299 6.50403 19.367 6.53603 19.423 6.60003C19.487 6.65603 19.519 6.72403 19.519 6.80403C19.519 6.94003 19.455 7.03203 19.327 7.08003C19.151 7.15203 18.951 7.21203 18.727 7.26003C18.511 7.30803 18.267 7.33203 17.995 7.33203C17.451 7.33203 16.991 7.23203 16.615 7.03203C16.239 6.82403 15.955 6.55203 15.763 6.21603C15.571 5.87203 15.475 5.49603 15.475 5.08803C15.475 4.61603 15.575 4.19603 15.775 3.82803C15.975 3.45203 16.263 3.16003 16.639 2.95203C17.015 2.73603 17.471 2.62803 18.007 2.62803C18.415 2.62803 18.803 2.69203 19.171 2.82003C19.307 2.86803 19.375 2.96803 19.375 3.12003C19.375 3.19203 19.343 3.26003 19.279 3.32403C19.215 3.38003 19.143 3.40803 19.063 3.40803C19.039 3.40803 18.967 3.39203 18.847 3.36003ZM17.731 1.56003C17.635 1.56003 17.551 1.52403 17.479 1.45203C17.343 1.32403 17.179 1.16803 16.987 0.984031C16.803 0.792031 16.635 0.612031 16.483 0.444031C16.435 0.380031 16.411 0.316031 16.411 0.252031C16.411 0.172031 16.435 0.112031 16.483 0.072031C16.539 0.0240312 16.599 3.12328e-05 16.663 3.12328e-05C16.743 3.12328e-05 16.811 0.0280311 16.867 0.0840309C16.995 0.212031 17.139 0.360031 17.299 0.528031C17.467 0.688031 17.619 0.836031 17.755 0.972031C17.891 0.836031 18.039 0.684031 18.199 0.516031C18.367 0.340031 18.507 0.196031 18.619 0.0840309C18.675 0.0280311 18.743 3.12328e-05 18.823 3.12328e-05C18.895 3.12328e-05 18.955 0.0240312 19.003 0.072031C19.051 0.120031 19.075 0.180031 19.075 0.252031C19.075 0.332031 19.051 0.396031 19.003 0.444031C18.859 0.596031 18.691 0.772031 18.499 0.972031C18.307 1.17203 18.147 1.32803 18.019 1.44003C17.939 1.52003 17.855 1.56003 17.767 1.56003H17.731ZM21.4935 0.168031C21.6295 0.168031 21.7455 0.224031 21.8415 0.336031C21.9375 0.440031 21.9855 0.584031 21.9855 0.768031C21.9855 0.952031 21.9375 1.09203 21.8415 1.18803C21.7455 1.28403 21.6335 1.33203 21.5055 1.33203C21.3615 1.33203 21.2375 1.28403 21.1335 1.18803C21.0375 1.08403 20.9895 0.944031 20.9895 0.768031C20.9895 0.584031 21.0375 0.440031 21.1335 0.336031C21.2295 0.224031 21.3495 0.168031 21.4935 0.168031ZM21.2055 2.92803C21.2055 2.84003 21.2335 2.76803 21.2895 2.71203C21.3535 2.65603 21.4255 2.62803 21.5055 2.62803C21.5935 2.62803 21.6655 2.65603 21.7215 2.71203C21.7775 2.76803 21.8055 2.84003 21.8055 2.92803V7.03203C21.8055 7.11203 21.7775 7.18403 21.7215 7.24803C21.6655 7.30403 21.5935 7.33203 21.5055 7.33203C21.4255 7.33203 21.3535 7.30403 21.2895 7.24803C21.2335 7.18403 21.2055 7.11203 21.2055 7.03203V2.92803ZM23.9946 0.900031C23.9946 0.812031 24.0226 0.740031 24.0786 0.684031C24.1426 0.628031 24.2146 0.600031 24.2946 0.600031C24.3826 0.600031 24.4546 0.628031 24.5106 0.684031C24.5666 0.740031 24.5946 0.812031 24.5946 0.900031V7.03203C24.5946 7.11203 24.5666 7.18403 24.5106 7.24803C24.4546 7.30403 24.3826 7.33203 24.2946 7.33203C24.2146 7.33203 24.1426 7.30403 24.0786 7.24803C24.0226 7.18403 23.9946 7.11203 23.9946 7.03203V0.900031ZM28.6557 2.58003C29.1437 2.58003 29.5637 2.69203 29.9157 2.91603C30.2757 3.13203 30.5517 3.42803 30.7437 3.80403C30.9437 4.17203 31.0437 4.58403 31.0437 5.04003C31.0437 5.48003 30.9437 5.87603 30.7437 6.22803C30.5517 6.58003 30.2757 6.86003 29.9157 7.06803C29.5637 7.27603 29.1437 7.38003 28.6557 7.38003C28.1757 7.38003 27.7557 7.27603 27.3957 7.06803C27.0357 6.86003 26.7557 6.57603 26.5557 6.21603C26.3637 5.85603 26.2677 5.45603 26.2677 5.01603C26.2677 4.56803 26.3637 4.16003 26.5557 3.79203C26.7477 3.42403 27.0237 3.13203 27.3837 2.91603C27.7437 2.69203 28.1677 2.58003 28.6557 2.58003ZM28.6557 3.18003C28.2877 3.18003 27.9677 3.26403 27.6957 3.43203C27.4317 3.60003 27.2277 3.82403 27.0837 4.10403C26.9397 4.37603 26.8677 4.68003 26.8677 5.01603C26.8677 5.51203 27.0277 5.93203 27.3477 6.27603C27.6757 6.61203 28.1117 6.78003 28.6557 6.78003C29.1997 6.78003 29.6317 6.61203 29.9517 6.27603C30.2797 5.94003 30.4437 5.52803 30.4437 5.04003C30.4437 4.69603 30.3717 4.38403 30.2277 4.10403C30.0837 3.82403 29.8757 3.60003 29.6037 3.43203C29.3397 3.26403 29.0237 3.18003 28.6557 3.18003ZM33.3611 0.780031C33.3611 0.700031 33.3931 0.632031 33.4571 0.576031C33.5211 0.520031 33.5931 0.492031 33.6731 0.492031C33.7531 0.492031 33.8211 0.524031 33.8771 0.588031C33.9331 0.644031 33.9611 0.716031 33.9611 0.804031L33.8771 4.14003C33.8771 4.22003 33.8451 4.28803 33.7811 4.34403C33.7251 4.40003 33.6531 4.42803 33.5651 4.42803C33.4851 4.42803 33.4171 4.39603 33.3611 4.33203C33.3051 4.26803 33.2771 4.19603 33.2771 4.11603L33.3611 0.780031ZM33.5771 6.09603C33.7371 6.09603 33.8691 6.16003 33.9731 6.28803C34.0771 6.40803 34.1291 6.56003 34.1291 6.74403C34.1291 6.96803 34.0771 7.13203 33.9731 7.23603C33.8771 7.34003 33.7491 7.39203 33.5891 7.39203C33.4611 7.39203 33.3371 7.34003 33.2171 7.23603C33.0971 7.13203 33.0371 6.96803 33.0371 6.74403C33.0371 6.55203 33.0851 6.39603 33.1811 6.27603C33.2771 6.15603 33.4091 6.09603 33.5771 6.09603Z" fill="white"/>
</svg>
